/* XPM */
static char *bc1da252c9914ba0ab9b53fc9d5c6d18Z7yQse2HFhqCCeG5[] = {
/* columns rows colors chars-per-pixel */
"64 64 243 2 ",
"   c #0D0200",
".  c #0F0900",
"X  c #130400",
"o  c #140B02",
"O  c #1A0C03",
"+  c #1A0803",
"@  c #1D130A",
"#  c #1C1105",
"$  c #221405",
"%  c #23150C",
"&  c #2C1B0D",
"*  c #291709",
"=  c #2C1D13",
"-  c #261914",
";  c #311E17",
":  c #2C1407",
">  c #2E2115",
",  c #2C221A",
"<  c #342214",
"1  c #33231B",
"2  c #3B2C1C",
"3  c #372717",
"4  c #3E311C",
"5  c #33230E",
"6  c #3A2B22",
"7  c #3C3225",
"8  c #43291A",
"9  c #43351E",
"0  c #433423",
"q  c #4C3B2C",
"w  c #473827",
"e  c #513C2B",
"r  c #583928",
"t  c #513E32",
"y  c #4E3529",
"u  c #4C422D",
"i  c #55432E",
"p  c #544234",
"a  c #5B4634",
"s  c #5C4B3A",
"d  c #564938",
"f  c #59503F",
"g  c #634E3C",
"h  c #644936",
"j  c #6B523D",
"k  c #63523D",
"l  c #6B5239",
"z  c #5A4C40",
"x  c #5E5143",
"c  c #635341",
"v  c #6B5543",
"b  c #6C5A44",
"n  c #6C5B4B",
"m  c #665848",
"M  c #745B44",
"N  c #735C4B",
"B  c #755A46",
"V  c #6C5D51",
"C  c #675447",
"Z  c #73614D",
"A  c #7C634D",
"S  c #766147",
"D  c #6A6657",
"F  c #756353",
"G  c #7A6453",
"H  c #7D6A55",
"J  c #74655A",
"K  c #7C6B5B",
"L  c #786A56",
"P  c #756C53",
"I  c #7B7264",
"U  c #80674D",
"Y  c #816652",
"T  c #846B55",
"R  c #836D5C",
"E  c #896E59",
"W  c #84735D",
"Q  c #8C735C",
"!  c #8A7B5E",
"~  c #927B5E",
"^  c #847363",
"/  c #8A7564",
"(  c #8D7A64",
")  c #8C7A6A",
"_  c #867968",
"`  c #917664",
"'  c #947C64",
"]  c #937D6B",
"[  c #987E69",
"{  c #887E71",
"}  c #927F71",
"|  c #7B806C",
" . c #8C846B",
".. c #93816E",
"X. c #9B856B",
"o. c #9A8468",
"O. c #888878",
"+. c #958474",
"@. c #9A8573",
"#. c #958973",
"$. c #9D8974",
"%. c #948D7A",
"&. c #9D8B7B",
"*. c #97867A",
"=. c #9A937B",
"-. c #A0886E",
";. c #A48D74",
":. c #A38D7B",
">. c #A68B75",
",. c #A4927C",
"<. c #AA947C",
"1. c #A89377",
"2. c #B19A7E",
"3. c #A2A573",
"4. c #A4AA7C",
"5. c #AAAC7C",
"6. c #A4A878",
"7. c #ADB17F",
"8. c #998D82",
"9. c #9D9483",
"0. c #939784",
"q. c #A28E82",
"w. c #A49383",
"e. c #AB9A85",
"r. c #AD9B8B",
"t. c #A69886",
"y. c #B49D84",
"u. c #B29E8A",
"i. c #BA9F89",
"p. c #B09E92",
"a. c #A19D94",
"s. c #9EA290",
"d. c #A5AE83",
"f. c #ADA38C",
"g. c #ABAD85",
"h. c #B4A38C",
"j. c #B8A689",
"k. c #ADB284",
"l. c #A4B38C",
"z. c #ACB48B",
"x. c #A6B288",
"c. c #B4B68D",
"v. c #A9A997",
"b. c #B3A493",
"n. c #BAA592",
"m. c #B3AA95",
"M. c #BCAC95",
"N. c #BBAC9B",
"B. c #B6A89A",
"V. c #A5B592",
"C. c #AAB691",
"Z. c #ACB995",
"A. c #ACBD9C",
"S. c #A9B799",
"D. c #B3BB93",
"F. c #B8B69B",
"G. c #B7ABA0",
"H. c #ADBAA4",
"J. c #BAB7A7",
"K. c #BBBFB3",
"L. c #C2AC94",
"P. c #C2AC9B",
"I. c #C7B39C",
"U. c #C1A78E",
"Y. c #C3B5A3",
"T. c #CAB6A2",
"R. c #C4BCAC",
"E. c #CBBCAA",
"W. c #C8B8A4",
"Q. c #D2BCA9",
"!. c #C5B2A6",
"~. c #B4C19C",
"^. c #AEC1A3",
"/. c #AFC4AC",
"(. c #B2C5AB",
"). c #B3C4A6",
"_. c #A6C6BE",
"`. c #ACC6BD",
"'. c #A8C8BE",
"]. c #B1C7B1",
"[. c #B4CAB5",
"{. c #B3C7BC",
"}. c #B5CBBC",
"|. c #BBCCBD",
" X c #BCC7B7",
".X c #BAD1BF",
"XX c #C8C2AC",
"oX c #D3C3AC",
"OX c #CCCAB6",
"+X c #C3CCBD",
"@X c #CBCCBA",
"#X c #C7C6B5",
"$X c #D4C5B2",
"%X c #D4CDB5",
"&X c #D3CDBA",
"*X c #DCCDBB",
"=X c #DAC8B4",
"-X c #C6D1BD",
";X c #DAD3B7",
":X c #D3D1BA",
">X c #DBD2BB",
",X c #D3D1B7",
"<X c #E6D2BD",
"1X c #A5C6C2",
"2X c #ABC6C3",
"3X c #A5C9C4",
"4X c #A9C9C6",
"5X c #ADC9C6",
"6X c #ABCBC6",
"7X c #A6CAC9",
"8X c #A7CECB",
"9X c #AACAC9",
"0X c #A9CDC9",
"qX c #AECFCE",
"wX c #ADCDCA",
"eX c #B2C6C2",
"rX c #B4CAC4",
"tX c #BBCEC2",
"yX c #B2CECB",
"uX c #B9CFCA",
"iX c #AED1CC",
"pX c #ACD0C7",
"aX c #B6D1C5",
"sX c #BBD2C4",
"dX c #B3D1CC",
"fX c #BAD2CB",
"gX c #BDD9C9",
"hX c #B8D4D1",
"jX c #C2CDC3",
"kX c #CBCDC4",
"lX c #C3D3C4",
"zX c #CCD4C4",
"xX c #C3D5CA",
"cX c #CBD8C9",
"vX c #D7D6C7",
"bX c #C5D9D1",
"nX c #D5DCD2",
"mX c #D8CEC2",
"MX c #E4D8C7",
"NX c #E5DDD0",
"BX c #D7E2D5",
"VX c #EBE6D8",
"CX c #F5F8EC",
/* pixels */
"5X5X5X5X5X5X5XeXeXrXrXuXrXuXjXtXtX+XjX+X|.+X+X|.+X|.#XjX@X@X+X@X@X@XOX@X@X@X,X,X&X&X&X&X>X&X>X;X>X,X,X,X,X;X;X;X;X;X;X;X;X;X;X;X",
"4X2X2X2X2X2X5X2X5XeXeXeXeXrXeXeX{.2X{.{.{.{.{. X|.|. X X|. X+X X+X X+X#X+X#X#X+X@XOX#XOXOX&X@X&X,X,X,X,X:X:X,X,X:X,X,X%X%X%X%X%X",
"1X3X3X3X1X4X1X7X2X2X2X5X2X2XeX`.2XK._.1X`.`.`.`.`.{.eX`.`.}.`.'.[.[.[.[. X|.[.[. X|.|. X|.|.+X|.+X@X-X-XkX@X@X@XkX@X@X@X@X@X&XOX",
"3X0X3X0X9X7X7X7X7X7X2X2X6X2X2X2X1X1X1X1X2X_.1X_._.2X_._.'.'.'.3X_.`._.{.`.{.{.{.{.eX{.{.{.{.[.{.{.|.jXtXtXjXtXjXtXjXjXjX|.+XjX+X",
"8X8X8X8X8X8X8X7X9X9X9X9X6X4X2X3X7X1X7X7X3X3X1X1X1X_.1X1X1X3X1X_._._.3X_.2X_.3X'.2X2X2X2X`.2X_.2XeX2XrXrXrXrXrXrXrXrXrXeXeXrXeXeX",
"9X8X9X8XqXqXqX8XqX8XqX8XpX0X0X7X7X7X7X7X7X7X3X4X3X3X3X1X3X3X3X3X1X3X1X1X1X_._.3X1X1X1X1X1X1X2X1X2X2X2X4X2X4X5X4X5X5XeX2X2X2X5XeX",
"8XqXqXqXqXqXqXqXqXqXqXqXqXwX0X9X8X8X7X3X7X7X4X4X1X4XwXwX3X4X7X9X3X3X7X4X4X3X3X4X7X2X2X2X2X1X1X1X2X7X4X0X0X0X0X0X7X5X4X9X1X7X2X2X",
"dXqXqXqXqXqXqXqXhXqXyXqXqXqX0X9X0X8X8X7X9X9X5X4X4X9XwX4X3X3X9X9X7X7X7X3X0X9X4X4X5X5X7X7X2X2X2X2X9X9X7X0X0X0X0XpX9X9XwX8X9X9X9X9X",
"dXqXqXhXdXdXdXdXqXdXdXdXqXyXwXwXwX0X0XwX5X6X5X0X2X5XyX5XqX1X2X5X7X1X7X9X0X4X2X5X2XiX2X2X2X3X2X3X3X3X0X0XpX6X0X0XwX0XwX0XpX6XpX0X",
"qXdXqXiXdXiXdXdXhXqXdXqXqXqXwX9X6XwX6X6X6X6X0X0X9XqX5X9X2XqX9X7X9X1XwX0X2X2XpX0X2X6X6X3X2X1X0X3X6X6X0X0X0X6X0X0X6X0XpX0XpX0X0X0X",
"iXiXdXiXqXiXiXiXqXiXdXiXiXwXwXwX6X6XwXwXwX0X8XiX9X9X7XyX9X9X2X5XyXrX5X2X6X6X3X0XpX3X'.pX0X3X4X1X0X6XwXwX6XwXwXwXwXwXwXwXwX6X6XwX",
"iXiXiXiXiXdXdXiXqXiXiXiXdXiXiXwXwXwXyXwXiXiXiXqXqX9XqX5X9X5XyXeXeXrXeXeXrX6X'.0X3X3X8X0X3X4XwX4X6X6XwXwXdXiXqXqXwXwXwXwXwXwXwXwX",
"qXqXiXiXiXdXiXiXiXiXdXiXiXiXiXiX6XdXdXiXqXqXqXqXqXwXyXyXrX{.tXtXkXR. XjXtXeXeX`.'.pXwX2X4X2X2X9XwXwXiXyXiXiXyXdXwXwXyXqXwXwXwXyX",
"dXdXqXdXiXdXdXdXdXdXdXdXdXdXdXdXdXdXiXdXiXqXiXyXwXyX{.{.kXnXzXK.J.R.B.G.K.K.K.jX.X.XrX5X5X9X3X0XwXwXqXdXdXwXqXqXyXyXqXqXqXwXyX9X",
"qXqXdXdXdXiXdXdXdXdXdXdXdXdXdXdXdXdXwXyXdXdXyXyXrXjXxXnXmX#XG.Y.B.p.p.b.p.p.N.p.S.H.jXeX`.2X0X0XiX6XiXiXiXwXiXpXyXyXyXwXqXwXwXwX",
"qXqXdXdXdXdXdXdXiXdXyXdXdXiXdXiXdXyX6XwXqXdXeXeXjXnXnX&XR.B.r.>.8.p.b.n.P.P.n.B.p.*.a.K.tXeX2XpX0XpX6XpXiXiXiXiXdXdXiXyXyXyXwXwX",
"qXyXdXdXyXyXdXyXdXyXdXdXqXiXdX6X0XpX6XrXfX2X}.jXnXE.G.B.9.w.&.&.n.r.q.M.r.p.p.G.!.E.t.%.v.jX`.wXpX0X6XyXdXiX0XpXpXyXwXyXqXyXwXrX",
"yXdXqXyXdXyXdXyXyXyXyXdXdXyXiXiXiX0X6XrXfXxXtXv.b.t.w.+.%.&.w.*.&.<.e.t.q.r.p.P.!.N.I.N.0.H.tXeX_.pXyXyX6X0X6XdXtXyXwXwX9X5XwX5X",
"dXdXdXdXdXdXyXdXyXdXqXdXiXyXiXwXiX6XdX{.bX{.%.8.t.w.} / K R } +.$.e.u.} p.q.w.q.u.n.T.M.v.%.H.tXaXwXrX5XpXdX2X6X6XrX9XwXyX2X5X6X",
"yXdXdXdXdXhXqXdXyXdXdXdXdXiXyXiXiXdXdXtXkXI 8.r.q.:.` E N R F ] :.@.@.u.p.*.w.:.w.i.I.e.B.v.9.K.tX5XuXyXdXdX6XyX6XyXwXyXwXyX6X6X",
"yXdXdXdXdXdXdXdXdXdXyXiXdXdXdXdXyXwXaXtXkXK N.P.y.` / N Y Q c F ` q.:.@.w.&.} ..@.M.T.E.t.9.q.v.lXrXfXiX6XyXyXpX5XwXwXyXyX5X6X6X",
"dXiXdXdXdXdXdXdXdXhXdXdXdXdXdXdXdXdXaX|.NXb.T.i.q.} R } a F ( &.) G q.&.q.w.} ] ..#.&.r.Q.Q.@.*. XfXrXiXrXyXfX6XdX5XyX5X5X5XyX6X",
"wXyXdXqXdXdXdXqXdXyXyXdXyXdXdXyXyXfXtXnXOX&.P.P.i.N n g c } t.r.8.8._ q.*.+.$. .L I m q + n $X^ 0.|.rXfXfXuXyXfXdXpX6XyX2X6X2XrX",
"yXiXdXyXiXiXdXdXyXyXhXdXyXhXyXuXfXfXjXv.b.@.y.-.A C F 7 V _ w.B.q.q.} 8.9.u.#.D V J #   X & T.#.O.jXrXyXyXyXrXdXpXdXdXyXyXdX6X6X",
"6X6XdXdXdXdXiXiXdXdXyXdXyXyXuXhXfXbX#XmXF.M.( T n N t @ - d t w ^ *.*.+.) ^ &.^ x p   + X ; r.K I  XsXaXfXuXyXfXdXdXyXyXwXyX6XrX",
"dXyXdXiXiXdXdXdXdXyXfXfXfXbXbXbXxXnXVXB.oXW.W b N F 1 X X - 1 1 z O.*.R ) G ( &.K z 7   O m ^ ( *.J.jXfXuXyXfXfXaXdXdXdXyX6XrXyX",
"yXyXyXdXdXdXdXdXfXfXyXfXfXuXbXbXnXcXJ.8.&.h.a : y J G V ; - ^ K w L L ..:.,.@.$.&.*.J 0 } J ( ! &.9.cXtXfXyXfXfXaXdXdXdXdXyXyXrX",
"dXaXyXdXdXdXhXdXhXyXhXfXhXbXbXBXCX8., I E.( H v e p R t.G.p.!.b.q.oXh.T.j.n.n.n.W.N.N.P.p.Z ,.^ #.a.@XxXrXhXbXyXfXfXdXdXpXdXdXyX",
"yXfXdXhXdXhXdXfXfXhXfXxXbXxXnXnXCXJ.. > 3 I K n a N R @.E.N.G.Y.oXY.oX=XoXoXE.*X*XMX$X*XoXv ] $.@.9.zXkXbXdXdXhXfXfXdXhXdXdXdXaX",
"dXfXdXfXdXhXhXdXhXuXfXfXxXbXxXcXnXK.D @ f I K R n g b ..!.$X$XXXY.E.%XE.>X<XMXmX<XNX*XXXI.T...,.e.f.J.jXfXhXfXhXfXhXhXiXdXfXyXfX",
"fXdXdXhXhXhXhXhXfXfXfXxXxXlXcXcXnXlX+XvXCXOXm.w.@.;.A ..( M.F.m.J.Y.W.XXOX@XMXmXNXMX>XoXoXoX$Xh.:.e.#XkXfXfXfXfXfXfXdXhXdXdXfXuX",
"dXfXfXdXfXfXfXfXfXfXfXxXlXxXxXxXxXlXzXnXzXVXVXI.w.b.e.f.f.f.F.R.J.XXOXOX%XR.#XvXMXNXMX;XoXW.P.oXI.w.B.kXfXdXhXhXfXfXhXdXdXhXuXfX",
"fXaXfXfXaXfXfXfXfXfXsXfXtXxXxXxXlXcXcXBX8.{ #XG.N.t.M.OX;XOXF.OX=XR.m.J.m.XXXX$X<X>X<X=XW.L.Q.Q.M.W.I.>XlXaXfXhXfXfXxXhXhXyXdXuX",
"fXdXfXfXfXfXsXsXsXfXlXgXfXgXsXsXsXxXnXvXD , J x D L J.m.XXF.E.v. .&.9.r.F.Y.$X%X;XoXW.M.T.I.I.I.oXM.n.$X-XbXdXfXuXhXhXuXuXhXhXdX",
"dXaXaXaXaXfXfXfXsXsXlXsXsXlXsXfXxXxXlXzXD I V J D V #.%.=. .9.K 9._ m.v.N.m.m.Y.M.M.2.2.2.j.y.I.I.oX=XE.vXaXgXiXhXhXuXuXfXfXuXyX",
"aXaXaXfXsXaXsXfXsXfXfXsXsXfXxXsXxXlXxXs.6 a.s _ } n h.XXm.f.9.=.r.9.b.f.h.h.&.e.f.h.j.-.Q ( U ;.2.L.Q.mXcXsXaXfXuXxXhXxXfXfXyXuX",
"aXaXaXfXaXaXsXsXsXaXsXxXlXfXsXsXxXsXcXO.z ) q V V ) %XN.P  .=.f.) L d e.c w.W #.1.1.2.o.o.1.1.-.n.I.I.<XvX+XgXdXfXsXfXfXfXfXfXyX",
"aXaXrXaXfXaXsXsXsXsXsXaXsXfXxXgXtXlXcXI s q *.d q #.b.s D u 4 =.p H 2 Z n k ' ! o.o.o.-.o.~ o.>.U.Q.<XoXvXzXaXgXfXfXfXfXdXfXaXaX",
"sXsXaXaXsXsXsXsXsXfXsXsXsXsXsXsXgXlXcX| f.@...u < / w.F b u w u K Z a v X.( H ;.-.2.1.U >.-.~ >.;.U.Q.<X&XzXsXaXsXfXfXaXfXsXtXaX",
"tXsXsXaXaXaXtXaXtXtXsXsXsXlXsXsXsX.X-XO.n.] v 2 < ) @.e H 5 g 5 M.j S T $.~ #.;.1.;.-.E ~ ~ [ [ 2.L.L.<XMXvXlXaXsXsXfXfXaXsXaXaX",
"aX}.sX.XtXsX.XsXtXsXsXsXsXsXfXsXgX.XcX .,.@.v < 0 V / N i e g s =.o.T l >.E ~ 1.-.1.-.U E >.E >.1.U.I.Q.;XvX.XsXsXfXaXsXfXsXsXtX",
"sXaXaX}.aXaXaXtXsXsXsXsXlXsXsXsXsXlX-X=.F.@.Z s = a F / 9 2 k b 2.~  .S ~ 1.-.-.1.' ~ E ` [ i.[ 2.;.U.=X=XvXcX.XsXsXfXaXsXaX|.aX",
"sXaXsXsXsXtXsXsXsXtXsXsXsXsXsXlXgXlX#X^ u.M.G y X q } c 5 j a j 2.o.1.U ~ 2.-.~ >.[ j Y U B >.<.>.U.L.T.=XMX+XlXgXsXaXaXsXsXaX|.",
"|.sXtXsX.XsXtXsXsXsXlX.XfXlXgXsXgX-XS._ u.,./ w $ X C & h B B @.U 1.;.o.2.1.U U ' U Y l Y ` l <.>.[ L.I.T.>XvX XgX.XsXfXsXaXtXsX",
".X.XaX.X.XaX.XsX.XlXgXgXlXsXlXsXsXcXt.} h.y.G 1 @ 6 % ; 8 B T ( 1.o.j.1.;.2.j U l h h B B E E ` 1.i.' U.T.*X&XzXlXsXuXsXaXaX.X|.",
".X}..XsXtX.X.X.XsX.X.XsXsXsXsXgXgXlX%.&.u.#.n 1 X 7   ; h r ` <.~ 1.o.' ~ -.h U B h Y U E ~ 2.E >.-.y.-.L.E.&X+XsXsXtXfXsXsXaX.X",
"}.aX.X}.}.sX.X.XsXsX.XgXsXgXsXgX.XcXw.#.u.c y ; - X X : 8 8 ] X.1.2.! o.>.U j M h l [ U U Y j ~ ! ;.o.n.u.N.OXzXsXsXtXjXsX.XtX|.",
".X}..X}..X}..XaX.X.X.XsX.XgXsXsXlXA.9.q.C & 6 6 % X   0 + r ` >.1.2.1.' E U M A l B l E Y E [ [ [ ` o.-.;.h.W.mX-XgXsXsXaXaXaXsX",
"}.}.}..X}.}..X.X.XpXgX.XaXsXsXsXlXv.J.0 @ = 1 ; - X 6 + : r B w.n.y.e.X.j ~ M j a C B B T l U E Y U E U -.[ u.R.@X|.sXaXaXgX.X.X",
"`.[.[.}.}.}.}..X.X.X.X.X.X.X.X.XlXV.b.X % ; ; 6 - , -   $ h E [ y.t.j.X.[ B B v h t 8 r < 8 r r h U U T N >.e.P.zX-XaX}.aXsX}..X",
"].].[.[.[.[.[.[.}.}.}..X.X.X.X.X-XA.m # @ % - 1 - -   o : g A X.:.u.<.Q M U v y 8 ; : + : 8 ; h j l E h E [ [ t.:X-X}..XaXsXrXsX",
"/.].].].].].[.].[.[.[.[.[.[.[.[..Xs.f & = % ; ; @ @ . . * h ` T u.e./ v j h A v B v N B v v g N E j j B E Y -.u.OX-X|..X.X}.}..X",
"^./.^.^.^.^./.(.(.(.].(.[.[.(.[.-X=.d > & 1 , & - @ o o = h ] / <.$.R h K G :.u.N.n.N.n.n.p.&.R j B E Q A T [ t.F.-X X|.}.}.}.}.",
"S.^.^.^.^.^.^.^.).).(.^.).(.).).[.0.4 - = & = , % @ # X : N Q X.T / / s G / } w.:.p.P.Y.r.b.*.] ` Y N B Q ` R :.v.-X X[.[.[.[.[.",
"V.V.^.^.^.^.~.V.^.^.~.^.^.^.).~.~.F.d $ @ 4 2 > - - o o < C / / ..R K / n e m =.!  .( #.] ^ } / >.G N N Y T ` :.t.#X X[.(.[.[.[.",
"V.V.V.V.l.V.l.~.~.~.V.^.~.~.~.~.).Z.d & > > > > - - #   & R / R F R @.V 2 p K k b d s K J K R ) / v c N a M N ` =.).(.(.(./.].].",
"l.l.l.l.l.C.C.C.l.l.~.C.Z.~.C.~.A.F.n # * 5 > > @ @ + X ; K K G s _ k w _ J s k P k f b P K / ^ H N u c c v Y ;.t.).).H.^.^././.",
"x.x.x.x.l.x.l.l.l.l.x.~.Z.z.Z.C.A.F.#.3 3 4 , > - @ + X y R F c i 9 7 4 u p d w n W b i k I ..R G F k e r N ` T $.F.F.H.H.A.^.H.",
"d.d.d.d.d.x.d.x.x.x.z.z.~.z.z.D.D.D.g.i 5 3 - > ; - X X t V n x q 4 w w d u 7 3 # 5 m q b ( $.&.R G a K c v G G  .z.S.Z.S.S.V.S.",
"4.4.4.d.4.d.5.d.k.x.z.z.k.c.z.z.z.D.F.! 9 4 4 , @   + + C C t x q 9 c u 2 2 2 3 O $ D C P  .$.@.R n ^ t F r G P  .g.C.C.V.V.V.V.",
"3.4.4.4.5.6.5.5.g.g.k.k.k.k.c.z.k.k.D.3.b 4 3 & % @ X ; z t t s 9 N V p 1 < 2 > # @ - J J ( &.` / F s G m j R S  .g.x.l.l.l.V.V.",
"3.3.3.3.3.6.6.5.4.5.5.7.k.k.k.k.k.c.c.L.3.P u 3 - $ = t p y p w s n x w * = o > @   O z m m N F Y R R V N N R S #.z.x.x.l.l.l.l.",
"3.3.3.3.3.3.6.6.6.5.5.7.7.7.7.7.7.5.5.c.c.1.S 4 = & ; z t t s 3 a V c y ; 1 > 1 - +   , d 2 e g N G ^ n a L P j #.z.x.x.x.l.l.l.",
"3.=.3.3.3.3.6.5.6.6.5.7.7.7.7.7.5.7.7.g.c.g.f.K d 6 y t t x t 2 a c p r p - 6 6 , - #   = x 0 9 B z F +.P H A l =.D.D.D.~.A.A.^."
};
