/* XPM */
static char *f9d79f02c95b4541b6d2eee60994b410GTuggbdQ3teRBbK1[] = {
/* columns rows colors chars-per-pixel */
"64 64 251 2 ",
"   c #060408",
".  c #1C0B00",
"X  c #180702",
"o  c #080C13",
"O  c #0A131A",
"+  c #1A1518",
"@  c #14100F",
"#  c #220B00",
"$  c #270C02",
"%  c #251102",
"&  c #2B1401",
"*  c #2B1805",
"=  c #321701",
"-  c #341B02",
";  c #3A1C01",
":  c #361C09",
">  c #261A1B",
",  c #3B2309",
"<  c #362317",
"1  c #0F1B2A",
"2  c #241E21",
"3  c #321F25",
"4  c #142632",
"5  c #282528",
"6  c #362B2A",
"7  c #3C3334",
"8  c #373639",
"9  c #323033",
"0  c #432302",
"q  c #4C2A04",
"w  c #4A2808",
"e  c #532D07",
"r  c #573409",
"t  c #4D3012",
"y  c #653A0B",
"u  c #653C13",
"i  c #713B10",
"p  c #453A39",
"a  c #4F352C",
"s  c #58311A",
"d  c #6C420E",
"f  c #67450D",
"g  c #73460E",
"h  c #6B4413",
"j  c #784B15",
"k  c #7B5115",
"l  c #59443A",
"z  c #694937",
"x  c #77533C",
"c  c #724B2D",
"v  c #112F49",
"b  c #343C45",
"n  c #4E3E41",
"m  c #354A58",
"M  c #30556B",
"N  c #30586C",
"B  c #494446",
"V  c #574B49",
"C  c #595453",
"Z  c #554E50",
"A  c #664C45",
"S  c #6A5549",
"D  c #785847",
"F  c #675957",
"G  c #745E56",
"H  c #604C55",
"J  c #796357",
"K  c #766354",
"L  c #525B68",
"P  c #4C6473",
"I  c #696466",
"U  c #7B6C6B",
"Y  c #766866",
"T  c #7A7376",
"R  c #726C76",
"E  c #6A5E62",
"W  c #8C5C1C",
"Q  c #855619",
"!  c #895319",
"~  c #95641E",
"^  c #8A5925",
"/  c #875B38",
"(  c #8E5429",
")  c #A45C32",
"_  c #946423",
"`  c #9A6A27",
"'  c #9E7229",
"]  c #976838",
"[  c #916532",
"{  c #A76A2A",
"}  c #A3732C",
"|  c #AA762C",
" . c #B2792C",
".. c #AC7B34",
"X. c #AD7C3B",
"o. c #A67636",
"O. c #B37B3A",
"+. c #AD683B",
"@. c #845D46",
"#. c #835F51",
"$. c #8A6448",
"%. c #956B47",
"&. c #8B6C5B",
"*. c #866856",
"=. c #936D57",
"-. c #8A715D",
";. c #997459",
":. c #9B744D",
">. c #A66C48",
",. c #A77947",
"<. c #B67847",
"1. c #A57B57",
"2. c #B57A55",
"3. c #B26E4B",
"4. c #886D63",
"5. c #8B7363",
"6. c #89756A",
"7. c #947463",
"8. c #9C7B65",
"9. c #937B6B",
"0. c #9B7C6A",
"q. c #977764",
"w. c #8B7C7B",
"e. c #867876",
"r. c #937D74",
"t. c #967D78",
"y. c #8A6C6C",
"u. c #A47D69",
"i. c #A47C74",
"p. c #C37946",
"a. c #C37B53",
"s. c #C0783E",
"d. c #B3813A",
"f. c #AC8348",
"g. c #B38344",
"h. c #B58949",
"j. c #AB8559",
"k. c #B68957",
"l. c #BA9657",
"z. c #B8914E",
"x. c #9D826C",
"c. c #95816D",
"v. c #8C827C",
"b. c #9B8373",
"n. c #9B857A",
"m. c #978679",
"M. c #A4826C",
"N. c #AA8667",
"B. c #B38A64",
"V. c #B68A68",
"C. c #BB956C",
"Z. c #B99467",
"A. c #A48473",
"S. c #AB8B7B",
"D. c #A78977",
"F. c #B48C76",
"G. c #AC947B",
"H. c #AA967A",
"J. c #B49C7D",
"K. c #B99577",
"L. c #AD916A",
"P. c #BBA17E",
"I. c #C29D5B",
"U. c #CD8551",
"Y. c #C6996A",
"T. c #C59B78",
"R. c #CA936D",
"E. c #C7A368",
"W. c #CDAA7B",
"Q. c #CAA577",
"!. c #D2A77A",
"~. c #C4A15F",
"^. c #507186",
"/. c #727883",
"(. c #8B7E85",
"). c #7F838F",
"_. c #8C8586",
"`. c #9A8B84",
"'. c #948B8A",
"]. c #9B8E8C",
"[. c #948785",
"{. c #9D9189",
"}. c #988C91",
"|. c #9C9493",
" X c #9B9698",
".X c #8C8F95",
"XX c #A28D82",
"oX c #A78E84",
"OX c #A59485",
"+X c #AC9383",
"@X c #AD9B84",
"#X c #A3948B",
"$X c #AC9B8B",
"%X c #AA968A",
"&X c #B39D84",
"*X c #B39D8B",
"=X c #B69887",
"-X c #A39594",
";X c #AB9C93",
":X c #A49C9B",
">X c #AB9D9C",
",X c #A59896",
"<X c #B49B94",
"1X c #AA8C8E",
"2X c #B4A185",
"3X c #BCA484",
"4X c #B4A28A",
"5X c #BDA58B",
"6X c #BEA98E",
"7X c #ACA19D",
"8X c #A7A19C",
"9X c #B7A398",
"0X c #9695A4",
"qX c #A59CA3",
"wX c #ABA3A2",
"eX c #ADABAB",
"rX c #A7A4A7",
"tX c #B2A5A3",
"yX c #B4ACAB",
"uX c #B9A9A7",
"iX c #ACABB3",
"pX c #A7A9B6",
"aX c #B5ADB4",
"sX c #B7B4B8",
"dX c #B0B1B7",
"fX c #C39D84",
"gX c #C09E9C",
"hX c #C3A482",
"jX c #C5A984",
"kX c #C5A98A",
"lX c #C9A887",
"zX c #C5A796",
"xX c #D4B193",
"cX c #C4ADA5",
"vX c #C5B7B8",
"bX c #D3B8A8",
"nX c #E6AD89",
"mX c #E6C6AE",
"MX c #B8B9C7",
"NX c #B8BCD3",
"BX c #ACB5C7",
"VX c #97BCCE",
"CX c #C5BBC7",
"ZX c #C4BDD2",
"AX c #D0BECA",
"SX c #BBC5D7",
"DX c #B9C2CD",
"FX c #C9C2CB",
"GX c #C7C5D6",
"HX c #D2C7CD",
"JX c #C4C5E1",
/* pixels */
"X X X X X X   X X X X . # % & - t < < , t , , < , < , , , : - - - * & & & * . . X X X X X X # # # # # X X # X # # # $ # # . X # ",
". . % . . . X X . . . . # % & % s z t & & - ; $ * & * % & & & & * * & & - & & * & % . % * % & $ $ $ $ $ $ $ $ # $ # $ $ . # & # ",
"% % % . % % % % % % * & & & & & =.bXi.w . & # & $ & # & & & - & - - = - : 0 0 , , - : : : : ; ; : & = $ & $ $ $ $ $ = : : - - : ",
"* * % % & * * - * - & - - - = , bX=XbXxXt & = & & & & - - , - , , , 0 w w w e q w w 0 w w 0 0 0 ; ; - - = = ; = = 0 ; = , : - - ",
"* * * - - - - - - , , - ; , - w q.@.i.gXmXs ; ; ; = ; ; 0 0 , 0 0 q e e e r t e s e t w e q q 0 w 0 0 ; = ; 0 ; 0 0 q q 0 0 0 w ",
"- - , , - , 0 q q , q q 0 0 0 t #.s #.q.zXbXt ; 0 0 0 0 q q e q r r r r r r r y r r r r e e e e q e 0 0 0 0 0 t r q q e q q e e ",
"0 0 , 0 q q r r r r q r r t e c / s =.=.x.bX=.t q e e r r r y f f f h h h h h i i f i y u y y y e y q e 0 e s s e u f r y y y i ",
"e q r r y f f y f f f f h r r %.e @.@.q.D.M.mXz r u d d g g h g k k k k j k j j c k j h h i g i i i e y e $.V.R.R./ i y g i i i ",
"f f f f g g g g g g f f [ c h $./ c =.#.i.(.S.xXh c k k k k Q k Q ^ k W ^ k ^ k ^ Q Q Q j j g g i j y c fX3.@.( ] !.! ! j ! ! ! ",
"f g k k k k k Q k k j j :.] x / j $.@.u.i.fXA.mXc.%.] ^ ~ _ ` ~ ` ` [ ' ` ` ` W ^ W W ^ Q Q ! Q j d 1.Y./ $.3.>.) +.p.! ! W ! W ",
"k W W W W Q ! W Q ~ ~ Q f.j.f.j.c c @.u.i.i.=Xi.mX[ f.[ ' ` ` ' ~ ' ' ' ' ' ' ` ` ~ W W W ! Q k j N.N.c >.2.3.p.<.{ U.~ W ~ _ ` ",
"~ ' ` ` ' ~ ~ _ ~ ' ' o.[ k.C.L.=.3.=.i.fX=XgX=XH.kXj.j.] ] | ' d.' ' d.d.} ' ' ` ` ~ ~ W ^ Q ^ 1.L./ %.2.2.a.3.a.p.p.{ { ` ] { ",
"d.~ d.d.} { ` } } ' o.f.o.] 1.Z.u.R.i.T.fXgX=X=XD.bX=.:.:.%.o.o.' ' d.d.' d.o.o.} | ` ~ ~ ^ ^ ] C.=.:.C.R.R.3.p.U.U.s.{ { { } o.",
"~ d.d.~ | | } { } | ..X.k.,.:.k.i.a.u.q.i.oX1XoXOXD.hXc j.E.Y.Z.f.f.o.o.d.f.o.f.o.o._ ' _ ^ ( T./ ;.V.j.2.k.+.p.p.U.s.p.{ { } | ",
"d.~ d.~ ........| ..o.d.g.Y.Y.j.a.i.a.i.i.=XgX<X%XD.cXx =.xXnXT.K.j.;.j.c.f.f.f.1.,.] [ / / C.@.u.V.T.V.2.] +.+.p.p.O.p.{  . . .",
"d.d.d.d.O.....O.O.X.d.o.f.<.k.T.fXfXi.i.fX(.<X<X%X4Xn.xX$.F.F.F.H.S.D.x.-.c.c.x.;.;.%.;.C.N.=.;.u.T.V.u.3.2.a.p.s.p.s.U.{  .|  .",
"~ d.d.d.d.d.} d.g.g.g.k.U.j.1.B.2.N.i.i.i.i.1X<X#X4Xm.@XA.-.c D e.G Y G A S F J F S K J 5.A.*.;.F.fXu.2.>.>.3.a.a.+.+.p.{  .|  .",
"d.d.' d.' f.,.f.g.X.O.h.k.B.C.C.u.@.c u.i.u.#.y.OXm.m.c.bXq.S a V F H E F Z I p p 7 7 a OXz 8.F.N.u.lXV.u.2.3.) ) p.) U. . .| | ",
"~ ' d.d.d.<.,.g.f.z.d.f.f.B.K.F.;./ z z @.y.y.0.K c.-.U zX< l < > 3 n 6 8 7 B n p p V r.*.D x.J.fXu.%.a.R.2.) ( +.+.) a.| { | | ",
"d.d.d.d.X.f.<.g.f.d.f.j.;.K.zXG.c z D =.z z D y.L.K c.K {.< * p 2 > + 5 @ + 5 5 B C U m.K J M.L.fXlXlXF.1.2.2.2.p.3.a.3.o. .}  .",
"o.o.o.d.d.d.f.f.f.z.f.j.L.5X$Xc.l x D x.=X4.q.*.c.c.-.F l 7 p Z 9     5   @ 5 + 9 + #XK S z =.:.2.T.T.nXT.2.3.>.+.2.R.k.o.o. .d.",
"+.,.X.d.g.f.g.h.f.f.j.L.J.4XOXc.5.D D J q.i.u.=Xc.L.c.l F C l Z o   8 O @   2 O + 6 U G K D $.=.1.%.1.2.V.lXnXnXQ.R.B.B.f.<.|  .",
",.,.d.h.d.g.h.h.z.j.j.L.G.OXv.c.K x.D.7.*.c.D.x.x.-.K S C 7 @ 5   5 2 O   5 @ o 5 l C v.G D u.=.%.%./ / ] %.] 2.R.Z.B.Z.,...d. .",
",.f.h.h.z.h.h.h.z.f.j.L.G.n.J 6.-.K 0.G.D.q.x.;.c.S F l 6   o O 2 9 O 5 + 2 o + Z C C 6.5.5.u.=.;.$./ c %.( %.) ,.R.B.jXZ.z.d.d.",
"g.h.z.z.z.z.z.z.z.z.l.L.L.c.U K *.-.7.9.H.S.-.K z U V < l + @ 5 8 b + n 5 8   8 B Z E 6.K OXu.8.@./ 1.1.%.%.( ( ! C.1.lXK.k.h.d.",
"h.k.z.z.d.I.I.z.z.l.l.L.x.c.5.c.c.x.-.A.c.5.9.A 6.G J p 7 5 8 Z 5 2 @ > n C   6 7 C V l t.9.&.7.#.T.u.u.>.( c ( ] V.T.fXjXC.f.h.",
"k.l.l.l.I.I.~.~.~.l.L.x.c.c.c.c.9.0.H.A.b.-.-.m.S V U C 8 9 9 Y + 5 @ 5 F C + 5 p Y 7 Y S G #.i.=Xu.;.%.( >.i j ) Y.Q.lXjXK.I.f.",
"l.k.I.I.I.~.~.~.l.l.Z.L.-.D D c.c.;.-.c.4.H.c.U v.Y F C l > + F 5 5 @ 6 l p 2 > C p Y V G S 7.D.u.u.7.1.V./ >.[ ] Y.C.fXlXT.Z.z.",
"k.Y.Y.~.~.E.E.~.W.P.Z.L.*.S x S K 8.5.5.9.U 6.`.`.[.H F V I + e.9 + > F 5 p + p w.p C F G G 0.u.A.u.F.T.B.k.$.c %.k.j.j.lXlXY.k.",
"C.Y.E.E.E.E.E.E.E.E.P.P.x.*.K x K 5.9.c.-.K K c.;X7Xp p Z T   B B + B Z 7 |.l V Y E F J S t.*.7.u.u.N.;.;.C.%.x %.j.:.%.K.lXQ.k.",
"Y.Y.Q.Q.Q.Q.Q.E.W.P.C.J.x.*.*.-.-.9.c.5.c.c.6.F #X7XV   p .X  8 9 5 I 8 E '.C C I e.].4.4.y.q.0.8.=.=.1.L.N.M.L.k.j.j.:.L.W.P.Z.",
"Y.Q.Q.!.!.!.W.W.E.W.W.L.x.-.-.c.@X5.9.c.H.9X7XuX#XtX6 > U _.  I 5 8 V 8 w..Xl p U uX].y.G &.0.i.u.8.=.q.;.N.F.N.K.Z.B.1.K.Q.lXP.",
"Q.T.W.W.W.W.W.W.W.W.W.K.x.;.x.D.c.H.OX4X6X4X8X8X$Xv.6 7 '.v.> m 8 Z R e.tX:X> 6 e.9Xr.A D q.u.A.q.8.q.D @.&.=.=.:.B.V.L.K.T.J.W.",
"fXQ.W.W.!.W.W.W.W.W.jX3XN.8.-.-.D S K K 8 @ O b C c.a K Y Y I L b Z (.}.yX-X6 $ ,X<X*XXX=XS.A.i.A.7.4.7.D a x $.%.N.C.V.K.hX3XQ.",
"lXW.W.W.W.W.W.W.W.xXlXW.x.x.;.*.D l S F 4 /.P v O 2 F -.l I L R L R /.0XqX1X+ a oX9XgXcX9XzX=X+XA.A.*.#.D z z @.;.N.Z.C.C.jXxX3X",
"T.lXW.W.W.W.W.jXlXjXkXkXL.;.7.x.H.4X4XK 4 VXN v v 9 6 m.c.V I T 0X0X(.(.e.y.p F w.(.].qXbXvXcX%X+Xi.u.S.u.D c c :.j.C.C.C.C.hXfX",
"hXjXlXlXjXW.jXW.W.jXjXjXL.&.&.8.A.H.+XF 4 ^.N 4 v M 4 m.v.T ).pXBX0XT (.(.(.t.V 3 1 9 4 9 U gXcX<XA.S.A.F.@.D @.@.1.T.C.C.V.K.hX",
"J.P.P.hX3XhXhXP.jXkXkX3XJ.x.c.q.x.L.=XY O P P v N N b R 8X.X XMXBXpX0XqX(.<XH + v v 4 L /.5 6 D i.=XD.i.D.i.#.$.@.%.V.C.C.N.fXK.",
"J.J.P.P.2XP.3X3X5X3X4XP.G.b.D.D.q.M.D.oX7 5 P P P P 1 L .XiXMXBXaXsXiXrXqX_.o L M v 1 ^.^.B 6 S * t a z @.=.i.=.=.@.1.N.V.V.fXK.",
"H.J.J.J.J.&X3X5X3X2X2X@Xx.c.@XG.8.&.&.t.m.6 o m m 4   I iXMXBXdXsXMXdXeXpXL O P N v v ^.^.O B %XoXD.#.D D *.u.;.;.1.:.1.N.C.fXT.",
"H.H.H.H.J.@X2X2X2X$XJ.@Xc.U 4XG.;.-.*.5.v.[.Z     o + T dXBXBXNXMXMXMXdXaX9 1 L ^.M M N M   K OX<XS.i.i.#.@.#.$.=.u.u.%.;.K.!.K.",
"L.H.H.H.J.2X4X2X$XH.4X@XH.b.m.2Xx.-.m.XX|.8XpX0X'.J p L BXNXBXNXMXMXMXMXqX$ 3 o M ^.^.M   m w.b.0.@.D =.&.z c =.=.$.@.$.u.=XlXT.",
"H.H.H.@X2X$X2X2XH.@X@XH.H.m.c.c.H.5.r.].eXiXMXeX].B 5 ).DXNXBXNXZXZXZXvXe.6 $         1 I R F A D l D i.q.#.@.@.@.x =.u.F.=XlXfX",
"H.H.J.2X2X2X2X@X$X$X$X$X{.H.{.c.b.m.`.|.pXMXMXrXT 9 .XBXDXNXMXNXZXZXAXuXy.4.`.Y Z H T L p 6 > a z u i.=Xi.=.u.M.u.=.8.F.=XfXxXfX",
"J.H.P.2X2X2X@X@X@XH.$X@XOXOXm.#XXXe.4.|.pXMXNXMXBXpXpXDXNXJXJXNXSXJXHXvX}.(.,X,X:Xe.Z 7 n 6 a A a D F.fXfXi.i.i.u.q.u.A.=XfXzX=X",
"J.P.2X2X2XJ.2X@X@XOX$X$X%X{.c.m.;X>X|.,XiXMXNXGXSXSXBXNXNXNXNXZXGXGXHXvXvXtXqX.X/.I B p p a a a *.S.=X=XS.F.F.D.D 7.S.=XfXzXxXfX",
"2X3XP.2X2X2XH.2XH.@X@X$XOXn.c.6.6.{.>XqXsXDXMXGXJXVXBXNXJXNXZXJXGXJXHXMXZXGXGXpX.XR E Y r.&.D D b.S.N.F.fXF.i.#.D #.q.D.=XzXzX=X",
"P.6X6X3X2X2X2X@X4X4X$X9X6XtX9X8X#X{.tXaXsXDXMXBXJXNXNXVXSXNXJXZXGXHXCXMXGXGXGXGXNXqX}.].n.b.D.n.q.$.*.0.u.M.7.S #.r.+X=XkXzXgXi.",
"3X3X6X3XP.P.6X6X2X4X4X4X8X8X{.{.[.v.{.yXDXMXDXDXNXMXpXBXaXZXZXJXAXAXCXZXGXGXGXGXZXsXyX%Xm.4.7.r.9.q.0.u.D.x.7.9.r.oX+X=XzXbXzX1X",
"P.3XjXP.6XP.2X2X4X4X8X{.H.{.$X8X;X X XsXsXsXMXBXDXGX(.(.(.(.(.(.uXvXaXZXGXNXGXZXMXvXaX<X#X<X[.t.9.oX*X=X+X9.r.XXn.=X=X*X9XzX<XoX",
"P.P.6XP.P.6X3XP.2X2X8X@X$X$X8X8X;X7X|.dXsXdXpXpXCXMXpX  R (.(.(.(.H eXHXGXZXZXMXFXvXvXvXuX`.w.6.r.XXS.oXr.b.b.m.XXoX=X*X=X1XA.q.",
"P.6XW.P.6XP.3X6X6X4XJ.@X@X$X8X4X8X8X7XeXsXeXrXrXqXqXtXR 3 y.y.n 3 1XAXZXCXMXMXCXCXCXvXvXtX1Xw.y.y.t.6.4.y.6.r.n.XX%X<XgX+X0.0.0.",
"6XW.W.3X6XP.P.jX6X2X@X$X$XH.{.8XuX8X|.'.eXeX8X X0X X|.[.G a A D (.uXCXAXMXMXCXCXHXHXvXvX9X].w.e.y.F F Y 4.e.n.XX1X<XzXgXD.7.=.7.",
"P.3X6X3X6XW.jXjXP.6X2XH.m.8X8X{.'.8XwXeXrXrX0X|._._.v.v.(.a a (.(.(.qX1X X XiXaXsXvXHX9X(.e.G U U Y e.U w.w.[.oX<X9XzX=X4.D &.q.",
"P.6XP.W.W.P.jXjX6X6XH.$X$Xm.m.v.[.7XyXsXeXrXrX8X_.v.e.U G p A y.y.(.(.qX:XwXaXaXvXAXHXXXY G F E I T e.[.w.[.[.#X%X9XcX<Xy.D &.q.",
"P.P.P.6X6XW.xXjXW.6X6X2X$XH.m.m.,X8XtX8XrX8X8X8X8X[.Y S n A l H E E e.e._.'.#X7XuXvX].cXw.H E Y U T w.].}.].oX;X9XcXcX<X=X0.0.*.",
"P.P.3XjXlXkXlXjXjX6X3X2XOXOX{.%Xv.#X,X7XwXeXwX8X X8X{.e.Y G Y Y F F U w._.,X,XtXtX;Xe.F ].].U e.y.(.}.(.:X,X>X7XuX9XuXcX<X<XD.#.",
"P.P.3X3XlXlXlXlXjXP.G.H.$XOX$Xm.,X`.|.,XtXyXeX8X8X8X8X|.'.e.v.e.e.(.e.`.].`.;X`.r.#XF G y.`.`.}.w.}.[.}.,XqX9X9X9XuX<X<X<X<X+X4.",
"G.2X3XjXkXkXkXkX3XP.2X@XOX$X{.$X#X{.7XtXyXtXeXeXeX8X8XrX8X'.'.'.1X`.`.].#Xv.#X[.U v.].G e.].qX-X>X].}.-X-XtX>X>X9X7X<X<X<XXXD.t.",
"J.3X3XkXkXkXkXkX6X2X2X@X4X$X4X8XOX8X7XuXsXyXyXeXeXeXrX8XrX8X8X X]._.'.`.v.v.v.-Xe.Y -X{.(.].[.,X>XqX>X}.tX,XuXtX9X>X>X;XcX<Xt.J ",
"J.&XhXkXkXkX5X5X5X6X*X+X$X7X4X{.#X8X8XeXyXyXsXeXeXeXeX8X8XrX8X X'.'.'.'.v.'.v.{.v.T v.wX[.[.[.}.>XqXtXtX,XyXtXuXuXuXcX<Xt.9Xy.4.",
"J.3X3X3X5XkX5XkX6X5X4X$XOX9X#X%X#X{.8X7XyXsXsXdXdXeXeXeXrX8X X X X'._.'.`.'._.'.|.v._.{.tX(.}.-X-XtXuX>XuXtXtXyXuXuXcX9XoXt.t.A ",
"3XhX=XkX3X5X5X6X6X*X@X$X9XOX$X#X$X{.8X8XyXsXsXeXdXeXeXrX8X8X8X8X Xv.'.'._.'.v.|. X_.}._.wXqX[.qX}.qXuXtX>XuXvXuXvXuXcXcXn.t.G G ",
"&X=X&X&X&X&X*X*X4X*X9X4X$X$X#X$X{.8X#X9XyXsXsXsXeXeXeXrX8X8X X8X X X{.'._.|._.|.:X.X}.'.'.wX-X-XqX:X:XvXtXyXuXvXvXcXtX;XD.*.A y."
};
